<svg width="34" height="114" viewBox="0 0 34 114" fill="none" xmlns="http://www.w3.org/2000/svg">
<path d="M0.2511 113.002L6.00296 113.502L3.55956 108.271L0.2511 113.002ZM13.9282 1.18906C14.0968 1.46673 14.266 1.74783 14.4354 2.0323L15.2945 1.52058C15.1236 1.23362 14.953 0.950012 14.7828 0.669827L13.9282 1.18906ZM15.4553 3.7789C15.7799 4.34572 16.1051 4.92418 16.4303 5.51379L17.306 5.03077C16.9782 4.43654 16.6504 3.85344 16.3231 3.28197L15.4553 3.7789ZM17.3896 7.2851C17.6997 7.8685 18.0095 8.46161 18.3183 9.06396L19.2082 8.60773C18.8971 8.00097 18.5851 7.40347 18.2726 6.81567L17.3896 7.2851ZM19.2198 10.8543C19.515 11.4513 19.809 12.0565 20.1012 12.6694L21.0038 12.239C20.7095 11.6218 20.4135 11.0123 20.1162 10.411L19.2198 10.8543ZM20.9484 14.4788C21.2273 15.0857 21.5043 15.6995 21.7789 16.3198L22.6933 15.9149C22.4168 15.2903 22.1379 14.6723 21.857 14.0612L20.9484 14.4788ZM22.5749 18.1519C22.8366 18.7661 23.0957 19.386 23.3519 20.0115L24.2773 19.6324C24.0193 19.0025 23.7583 18.3783 23.4948 17.7599L22.5749 18.1519ZM24.0978 21.8692C24.3422 22.4904 24.5834 23.1166 24.8211 23.7473L25.7569 23.3946C25.5174 22.7594 25.2745 22.1288 25.0284 21.5032L24.0978 21.8692ZM25.5146 25.6278C25.741 26.2558 25.9639 26.8881 26.1828 27.5243L27.1284 27.1989C26.9079 26.558 26.6834 25.9212 26.4553 25.2885L25.5146 25.6278ZM26.8212 29.4252C27.0291 30.0599 27.2329 30.6982 27.4322 31.3396L28.3871 31.0429C28.1863 30.3965 27.981 29.7534 27.7715 29.1139L26.8212 29.4252ZM28.0125 33.2594C28.2009 33.9005 28.3846 34.5445 28.5634 35.1911L29.5272 34.9246C29.347 34.2728 29.1618 33.6237 28.972 32.9775L28.0125 33.2594ZM29.0821 37.1284C29.2497 37.7755 29.4122 38.4249 29.5692 39.0763L30.5413 38.8419C30.383 38.185 30.2192 37.5301 30.0502 36.8777L29.0821 37.1284ZM30.0223 41.0299C30.1677 41.6824 30.3074 42.3367 30.4412 42.9925L31.421 42.7926C31.286 42.1308 31.145 41.4707 30.9984 40.8124L30.0223 41.0299ZM30.824 44.9609C30.9455 45.6183 31.0608 46.2769 31.1697 46.9366L32.1563 46.7737C32.0464 46.1077 31.93 45.4427 31.8073 44.7791L30.824 44.9609ZM31.4766 48.9179C31.5724 49.5795 31.6614 50.2418 31.7434 50.9045L32.7358 50.7817C32.6529 50.112 32.563 49.4429 32.4663 48.7747L31.4766 48.9179ZM31.9684 52.8965C32.0362 53.5614 32.0967 54.2264 32.1497 54.8913L33.1465 54.8119C33.093 54.1395 33.0318 53.4671 32.9632 52.795L31.9684 52.8965ZM32.2858 56.891C32.3234 57.5579 32.3531 58.2245 32.3746 58.8905L33.3741 58.8583C33.3523 58.1841 33.3223 57.5095 33.2842 56.8347L32.2858 56.891ZM32.4143 60.8938C32.4191 61.5615 32.4153 62.2283 32.4027 62.8939L33.4025 62.9128C33.4153 62.2383 33.4191 61.5628 33.4142 60.8866L32.4143 60.8938ZM32.3377 64.8956C32.3069 65.5622 32.2669 66.2274 32.2174 66.8909L33.2147 66.9653C33.2649 66.2922 33.3054 65.6176 33.3366 64.9417L32.3377 64.8956ZM32.0393 68.8844C31.9701 69.5477 31.8909 70.209 31.8017 70.868L32.7926 71.0022C32.8833 70.3329 32.9636 69.6615 33.0339 68.9882L32.0393 68.8844ZM31.5018 72.8453C31.3913 73.5024 31.2703 74.157 31.1384 74.8088L32.1185 75.0071C32.2526 74.3444 32.3757 73.6789 32.488 73.0111L31.5018 72.8453ZM30.7087 76.7602C30.5543 77.4078 30.3887 78.0522 30.2117 78.6933L31.1756 78.9596C31.3558 78.3069 31.5244 77.651 31.6814 76.992L30.7087 76.7602ZM29.6452 80.6075C29.4447 81.2416 29.2325 81.872 29.0082 82.4985L29.9497 82.8356C30.1783 82.1971 30.3945 81.5548 30.5987 80.9089L29.6452 80.6075ZM28.2998 84.363C28.0519 84.9791 27.7917 85.5911 27.5189 86.1986L28.4311 86.6082C28.7094 85.9886 28.9748 85.3645 29.2275 84.7362L28.2998 84.363ZM26.6661 88C26.3702 88.5936 26.0617 89.1826 25.7401 89.7667L26.6162 90.2489C26.9443 89.6528 27.2592 89.0517 27.5611 88.446L26.6661 88ZM24.7439 91.4914C24.4008 92.0581 24.0447 92.6198 23.6753 93.1763L24.5085 93.7293C24.8855 93.1613 25.249 92.5878 25.5993 92.0093L24.7439 91.4914ZM22.5406 94.8113C22.1518 95.3474 21.7499 95.8783 21.3348 96.4036L22.1193 97.0236C22.5431 96.4875 22.9532 95.9457 23.3501 95.3984L22.5406 94.8113ZM20.0705 97.9375C19.6385 98.4403 19.1936 98.9377 18.7353 99.4292L19.4668 100.111C19.9342 99.6097 20.3883 99.1022 20.8291 98.5891L20.0705 97.9375ZM17.3542 100.853C16.8819 101.321 16.3967 101.784 15.8983 102.24L16.5739 102.978C17.0818 102.512 17.5765 102.041 18.0582 101.563L17.3542 100.853ZM14.4161 103.548C13.9097 103.978 13.3907 104.402 12.8591 104.821L13.4778 105.607C14.019 105.18 14.5475 104.748 15.0635 104.31L14.4161 103.548ZM11.2816 106.018C10.7478 106.409 10.2022 106.794 9.6445 107.173L10.2067 108C10.7739 107.614 11.3289 107.223 11.8721 106.825L11.2816 106.018ZM7.97463 108.268C7.41971 108.619 6.85364 108.964 6.27623 109.304L6.7836 110.166C7.37004 109.821 7.94516 109.47 8.50911 109.113L7.97463 108.268ZM4.51548 110.304C3.94534 110.617 3.36482 110.924 2.77379 111.226L3.22865 112.116C3.82817 111.81 4.4172 111.498 4.99588 111.181L4.51548 110.304Z" fill="#656B76"/>
</svg>
